<?xml version="1.0" encoding="UTF-8"?>
<svg id="Layer_2" data-name="Layer 2" xmlns="http://www.w3.org/2000/svg" version="1.1" viewBox="0 0 69.2 68">
  <defs>
    <style>
      .cls-1 {
        fill: none;
        stroke: #002;
        stroke-linecap: round;
        stroke-linejoin: round;
        stroke-width: 2px;
      }
    </style>
  </defs>
  <g id="Layer_1-2" data-name="Layer 1-2">
    <path class="cls-1" d="M34.6.5C15.8.5.5,15.9.5,34.9s9.8,28,23.3,32.6c1.7.3,2.3-.7,2.3-1.7s0-3.5,0-6.4c-9.5,2-11.5-4.1-11.5-4.1-1.5-4-3.8-5-3.8-5-3.1-2.1.2-2.1.2-2.1,3.4.2,5.2,3.5,5.2,3.5,3,5.2,8,3.8,9.9,2.8.3-2.2,1.2-3.8,2.1-4.6-7.6-.8-15.5-3.8-15.5-17s1.4-6.8,3.5-9.2c-.3-.9-1.5-4.4.3-9.1,0,0,2.9-.9,9.4,3.5,2.8-.8,5.6-1.1,8.5-1.1s5.8.4,8.5,1.1c6.5-4.4,9.4-3.5,9.4-3.5,1.9,4.7.7,8.3.3,9.1,2.2,2.4,3.5,5.5,3.5,9.2,0,13.2-8,16.1-15.6,17,1.2,1.1,2.3,3.1,2.3,6.4,0,4.6,0,8.3,0,9.4s.6,2,2.3,1.7c13.6-4.5,23.3-17.4,23.3-32.6C68.8,15.9,53.4.5,34.6.5h0Z"/>
  </g>
</svg>