<?xml version="1.0" encoding="UTF-8"?>
<svg id="Layer_2" data-name="Layer 2" xmlns="http://www.w3.org/2000/svg" version="1.1" viewBox="0 0 62.9 62.9">
  <defs>
    <style>
      .cls-1 {
        fill: none;
        stroke: #002;
        stroke-miterlimit: 10;
        stroke-width: 2px;
      }
    </style>
  </defs>
  <g id="Layer_1-2" data-name="Layer 1-2">
    <g>
      <path class="cls-1" d="M7.3,62.5h48.3c3.8,0,6.9-3.1,6.9-6.9V7.3c0-3.8-3.1-6.9-6.9-6.9H7.3c-3.8,0-6.9,3.1-6.9,6.9v48.3c0,3.8,3.1,6.9,6.9,6.9Z"/>
      <path class="cls-1" d="M53.9,53.9h-9.2v-15.7c0-4.3-1.6-6.7-5-6.7s-5.6,2.5-5.6,6.7v15.7h-8.9v-29.9h8.9v4s2.7-4.9,9-4.9,10.9,3.9,10.9,11.9v18.9h0ZM14.5,20.1c-3,0-5.5-2.5-5.5-5.5s2.4-5.5,5.5-5.5,5.5,2.5,5.5,5.5-2.5,5.5-5.5,5.5ZM9.9,53.9h9.2v-29.9h-9.2s0,29.9,0,29.9Z"/>
    </g>
  </g>
</svg>