<?xml version="1.0" encoding="UTF-8"?><svg id="Layer_2" xmlns="http://www.w3.org/2000/svg" viewBox="0 0 1026.76 558.11"><g id="Layer_1-2"><path d="M49.72,498.07l-15.72,3.58v48.93l-33.1,7.53v-148.92l57.93-13.18c27.52-6.26,49.66,11.47,49.66,39.76,0,18.3-10.76,37.34-26.69,49.26l30.83,47.66-35.59,8.1-27.31-42.72ZM34,471.87l24.83-5.65c9.1-2.07,16.55-12.06,16.55-22.91s-7.45-17.45-16.55-15.38l-24.83,5.65v38.29Z"/><path d="M125.04,455.41c0-43.83,33.73-85.11,75.31-94.57,41.59-9.46,75.31,16.48,75.31,60.31s-33.73,85.11-75.31,94.57c-41.59,9.46-75.31-16.48-75.31-60.3ZM242.56,428.68c0-26.59-18.62-40.01-42.21-34.65-23.59,5.37-42.21,27.26-42.21,53.85s18.62,40.01,42.21,34.65c23.59-5.37,42.21-27.26,42.21-53.85Z"/><path d="M407.05,422.1c0,26.38-20.9,48.37-46.76,54.25l-60.83,13.84v-148.92l56.69-12.9c25.24-5.74,45.73,6.41,45.73,32.15,0,12.34-4.76,23.21-12.62,32.02,10.76,4.57,17.79,14.46,17.79,29.56ZM332.57,365.65v26.38l23.59-5.37c7.45-1.69,12.62-8.4,12.62-16.06s-4.96-12.06-12.62-10.32l-23.59,5.37ZM373.95,427.08c0-8.3-5.38-13.03-13.65-11.15l-27.73,6.31v28.51l27.73-6.31c8.28-1.88,13.65-9.06,13.65-17.36Z"/><path d="M519.82,407.3v32.76l-91.04,20.71v-148.92l90-20.48v32.76l-56.9,12.94v24.68l51.73-11.77v32.34l-51.73,11.77v26.38l57.93-13.18Z"/><path d="M592.45,374.61l-15.72,3.58v48.93l-33.1,7.53v-148.92l57.93-13.18c27.52-6.26,49.66,11.47,49.66,39.76,0,18.3-10.76,37.34-26.69,49.26l30.83,47.66-35.59,8.1-27.31-42.72ZM576.72,348.4l24.83-5.65c9.1-2.07,16.55-12.06,16.55-22.91s-7.45-17.45-16.55-15.38l-24.83,5.65v38.29Z"/><path d="M770.18,266.94l-37.24,8.47v116.16l-33.1,7.53v-116.16l-37.24,8.47v-32.76l107.59-24.48v32.76Z"/><path d="M778.47,347.39l28.55-23.52c5.17,11.16,14.07,17.44,30.42,13.72,15.73-3.58,19.66-10.86,19.66-16.6,0-9.15-8.28-10.88-30-12.11-21.52-1.27-42.62-7.11-42.62-35.62s23.59-50.68,48.62-56.37c23.79-5.41,42.42,2.05,52.97,21.56l-27.93,23.16c-4.96-9.51-11.79-14.55-25.04-11.54-10.34,2.35-15.52,8.85-15.52,14.8,0,6.81,3.52,10.69,26.07,12.58,21.93,1.82,46.55,4.09,46.55,35.58,0,28.72-22.35,50.82-53.8,57.98-30.42,6.92-49.86-3.55-57.93-23.63Z"/><path d="M931.58,376.17l-24.83,5.65,8.28-64.64,33.1-7.53-16.55,66.52ZM908.82,262c0-11.06,8.9-22.23,19.66-24.68s19.66,4.68,19.66,15.74-8.9,22.24-19.66,24.68c-10.76,2.45-19.66-4.68-19.66-15.74Z"/><path d="M966.75,330.51c8.9-.96,14.48-3.72,14.48-13.93v-30.21c0-11.7,3.52-21.44,10.97-28.66-7.45-3.62-10.97-11.76-10.97-23.46v-30.21c0-10.21-5.59-10.43-14.48-7.34v-30.64c31.66-9.33,45.52,3.26,45.52,30.92v30.21c0,10.21,5.59,10.43,14.48,7.34v30.85c-8.9.96-14.48,3.72-14.48,13.93v30.21c0,27.66-13.86,46.55-45.52,51.63v-30.64Z"/><path d="M404.48,238.91v-30.21c0-10.21-5.59-10.43-14.48-7.34v-30.85c8.9-.96,14.48-3.72,14.48-13.93v-30.21c0-27.66,13.86-46.55,45.52-51.63v30.64c-8.9.96-14.48,3.72-14.48,13.93v30.21c0,11.7-3.52,21.44-10.96,28.45,7.45,3.84,10.96,11.97,10.96,23.67v30.21c0,10.21,5.59,10.43,14.48,7.34v30.64c-31.66,9.33-45.52-3.26-45.52-30.92Z"/><path d="M459.31,211.12l28.55-23.52c5.17,11.16,14.07,17.44,30.42,13.72,15.73-3.58,19.66-10.86,19.66-16.6,0-9.15-8.28-10.88-30-12.11-21.52-1.27-42.62-7.11-42.62-35.62s23.59-50.68,48.62-56.37c23.79-5.41,42.42,2.05,52.97,21.56l-27.93,23.16c-4.96-9.51-11.79-14.55-25.04-11.54-10.34,2.35-15.52,8.85-15.52,14.8,0,6.81,3.52,10.69,26.07,12.58,21.93,1.82,46.55,4.09,46.55,35.58,0,28.72-22.35,50.82-53.8,57.98-30.42,6.92-49.86-3.55-57.93-23.63Z"/><path d="M675.53,172.36l-53.79,12.24-7.24,25.05-36.21,8.24,49.24-160.12,42.21-9.6,49.24,137.72-36.21,8.24-7.24-21.75ZM665.6,142.7l-16.97-50.82-16.96,58.54,33.93-7.72Z"/><path d="M881.4,148.92l-33.1,7.53v-86.59l-37.45,71.71-3.72.85-37.45-54.67v86.59l-33.1,7.53V32.95l33.1-7.53,39.31,57.22,39.31-75.11,33.1-7.53v148.92Z"/><path d="M908.31,53.23c0-11.06,8.9-22.23,19.66-24.68,10.76-2.45,19.65,4.68,19.65,15.74s-8.9,22.24-19.65,24.68c-10.76,2.45-19.66-4.68-19.66-15.74ZM908.31,125.57c0-11.06,8.9-22.24,19.66-24.68,10.76-2.45,19.65,4.68,19.65,15.74s-8.9,22.23-19.65,24.68c-10.76,2.45-19.66-4.68-19.66-15.74Z"/><polygon points="0 349.44 357.15 268.19 357.15 113.86 0 195.11 0 349.44" style="fill:#f7c636;"/></g></svg>