<?xml version="1.0" encoding="UTF-8"?>
<svg id="Layer_2" data-name="Layer 2" xmlns="http://www.w3.org/2000/svg" version="1.1" viewBox="0 0 85.9 60.7">
  <defs>
    <style>
      .cls-1 {
        fill: none;
        stroke: #002;
        stroke-linecap: round;
        stroke-linejoin: round;
        stroke-width: 2px;
      }
    </style>
  </defs>
  <g id="Layer_1-2" data-name="Layer 1-2">
    <g>
      <path class="cls-1" d="M84.3,3.4c.2.8,0,1.8-.7,2.5l-26.9,26.9-9.9,9.9c-2.1,2.1-5.6,2.1-7.7,0l-9.9-9.9L2.3,5.9c-.7-.7-.9-1.8-.6-2.7-.8,1.1-1.2,2.4-1.2,3.8v46.6c0,2.2,1,4.1,2.7,5.2,1.1.8,2.4,1.3,3.9,1.3h71.9c1.5,0,2.8-.5,3.9-1.3,1.6-1.2,2.6-3.1,2.6-5.2V7c0-1.3-.4-2.5-1.1-3.6Z"/>
      <path class="cls-1" d="M83.7,5.9l-26.9,26.9-9.9,9.9c-2.1,2.1-5.6,2.1-7.7,0l-9.9-9.9L2.3,5.9c-.7-.7-.9-1.8-.6-2.7C2.9,1.6,4.8.5,7,.5h71.9c2.3,0,4.3,1.2,5.4,2.9h0c.2.9,0,1.8-.7,2.5Z"/>
      <path class="cls-1" d="M82.8,58.9c-1.1.8-2.4,1.3-3.9,1.3H7c-1.4,0-2.8-.5-3.9-1.3l26.1-26.1,9.9,9.9c2.1,2.1,5.6,2.1,7.7,0l9.9-9.9,26,26Z"/>
    </g>
  </g>
</svg>