<?xml version="1.0" encoding="utf-8"?>
<!-- Generator: Adobe Illustrator 23.0.6, SVG Export Plug-In . SVG Version: 6.00 Build 0)  -->
<svg version="1.1" id="Base" xmlns="http://www.w3.org/2000/svg" xmlns:xlink="http://www.w3.org/1999/xlink" x="0px" y="0px"
	 viewBox="0 0 1041.3 554.2" style="enable-background:new 0 0 1041.3 554.2;" xml:space="preserve">
<style type="text/css">
	.st0{opacity:0.1;fill:#F75D5D;enable-background:new    ;}
	.st1{opacity:0.1;}
	.st2{fill:#F75D5D;}
	.st3{fill:#65617D;}
	.st4{opacity:0.2;enable-background:new    ;}
	.st5{opacity:0.1;enable-background:new    ;}
	.st6{fill:#3F3D56;}
	.st7{fill:#F2F2F2;}
	.st8{fill:#52516D;}
	.st9{fill:#C8CAD7;}
	.st10{opacity:0.2;fill:#F75D5D;enable-background:new    ;}
	.st11{fill:#EDEDF4;}
	.st12{fill:#4C4C78;}
	.st13{opacity:0.5;fill:#F75D5D;enable-background:new    ;}
	.st14{opacity:0.5;fill:#DCE0ED;enable-background:new    ;}
	.st15{opacity:0.5;}
	.st16{fill:#DCE0ED;}
	.st17{opacity:0.5;fill:none;stroke:#F75D5D;stroke-width:4;stroke-miterlimit:10;enable-background:new    ;}
	.st18{fill:#41B883;}
	.st19{fill:#2F2E41;}
	.st20{fill:#FBBEBE;}
	.st21{fill:url(#SVGID_1_);}
	.st22{opacity:0.1;fill:none;stroke:#000000;stroke-miterlimit:10;enable-background:new    ;}
	.st23{fill:#6A5C99;}
	.st24{fill:#FFD037;}
</style>
<g id="Background">
	<path class="st0" d="M961.5,438.2c-1.2,2.5-2.3,5-3.5,7.4c-1.8,3.8-3.6,7.5-5.3,11.1c-0.8,1.6-1.6,3.2-2.3,4.8
		c-8.6,17.6-16.6,33.1-23.5,45.9c-12.6,23.6-37.1,38.4-63.8,38.7l-151.6,1.7h-1.6l-13,0.1l-11.1,0.1l-34.1,0.4h-1.4l-17.4,0.2h-0.5
		l-107,1.2l-95.5,1l-11.1,0.1l-69,0.8h-0.1l-44.8,0.5h-0.5l-141.5,1.5l-42.3,0.5c-9,0.1-18-1.2-26.7-3.8
		c-15-4.5-28.6-13.1-39.1-24.8c-18.2-20-31.4-43.4-40.3-68.8c-1.3-3.7-2.5-7.4-3.6-11.1c-30.8-104.2,6.8-238.5,74.4-328.4
		c2.8-3.8,5.7-7.4,8.6-11l0.1-0.1c20.8-25.5,44.1-46.8,68.9-62c44-26.9,92.8-34.5,140.7-11.9c40.6,19.1,78.5,28.1,115.2,30.6
		c3.7,0.2,7.4,0.4,11.1,0.5C514.1,65.9,593,35.6,685.8,16c3.7-0.8,7.4-1.6,11.1-2.3C763,0.5,836.4-6.4,923.6,8.2
		c9.1,1.5,18,3.6,26.8,6.4c3.8,1.2,7.6,2.6,11.1,4c41.6,16.9,64.3,48.2,74,87.5c0.9,3.6,1.7,7.3,2.4,11.1
		C1055,211.5,1004.8,345.3,961.5,438.2z"/>
	<g id="Bars" class="st1">
		<path class="st2" d="M162.9,44.1v509.6l-42.3,0.5c-9,0.1-18-1.2-26.7-3.8V106.1H94C114.8,80.5,138.1,59.2,162.9,44.1z"/>
		<path class="st2" d="M1037.9,117.2H85.3c2.8-3.8,5.7-7.4,8.6-11v-0.1h941.6C1036.4,109.7,1037.2,113.4,1037.9,117.2z"/>
		<path class="st2" d="M961.5,18.6v427H958c-1.8,3.8-3.6,7.5-5.3,11.1c-0.8,1.6-1.6,3.2-2.3,4.8V14.6
			C954.2,15.8,957.9,17.1,961.5,18.6z"/>
		<path class="st2" d="M696.9,13.7V548l-11.1,0.1V15.9C689.4,15.2,693.1,14.4,696.9,13.7z"/>
		<path class="st2" d="M429.9,63.2v487.6l-11.1,0.1V62.7C422.5,62.9,426.2,63.1,429.9,63.2z"/>
		<path class="st2" d="M958,445.6c-1.8,3.8-3.6,7.5-5.3,11.1H14.5c-1.3-3.7-2.5-7.4-3.6-11.1H958z"/>
	</g>
</g>
<g id="Desk">
	<polygon class="st3" points="886.3,533.7 886.3,546.7 726.6,548 724.9,548.1 664.3,548.6 662.8,548.6 644.4,548.8 643.8,548.8 
		531.4,549.8 346.9,551.4 346.7,551.4 299.8,551.8 299.3,551.8 90.8,553.7 90.8,538.7 139.9,510.6 238.2,509.9 240.3,509.9 
		241,509.9 243.1,509.8 290.3,509.5 292.4,509.4 293.1,509.4 295.2,509.4 310.4,509.3 310.8,509.3 348.1,509 348.4,509 639.9,506.6 
		647,506.6 647.8,506.6 653.2,506.5 692.8,506.2 694.9,506.2 696.8,506.2 697.8,506.2 710.1,506.1 712.6,506.1 715.8,506 726.1,506 
		742.3,505.8 744.4,505.8 748.1,505.8 748.8,505.8 827.3,505.1 	"/>
	<polygon class="st4" points="886.3,533.7 886.3,546.7 726.6,548 724.9,548.1 664.3,548.6 662.8,548.6 644.4,548.8 643.8,548.8 
		531.4,549.8 346.9,551.4 346.7,551.4 299.8,551.8 299.3,551.8 90.8,553.7 90.8,538.7 139.9,510.6 238.2,509.9 240.3,509.9 
		241,509.9 243.1,509.8 290.3,509.5 292.4,509.4 293.1,509.4 295.2,509.4 310.4,509.3 310.8,509.3 348.1,509 348.4,509 639.9,506.6 
		647,506.6 647.8,506.6 653.2,506.5 692.8,506.2 694.9,506.2 696.8,506.2 697.8,506.2 710.1,506.1 712.6,506.1 715.8,506 726.1,506 
		742.3,505.8 744.4,505.8 748.1,505.8 748.8,505.8 827.3,505.1 	"/>
	<polygon class="st5" points="886.3,533.7 886.3,546.7 726.6,548 724.9,548.1 664.3,548.6 662.8,548.6 644.4,548.8 643.8,548.8 
		531.4,549.8 346.9,551.4 346.7,551.4 299.8,551.8 299.3,551.8 90.8,553.7 90.8,538.7 303.6,537.3 304.1,537.3 347.2,537 347.4,537 
		644.9,535.2 645.2,535.2 645.3,535.2 645.8,535.2 650.9,535.1 652.4,535.1 730.7,534.6 735.3,534.6 736.3,534.6 	"/>
</g>
<g id="Computer_1">
	<path class="st6" d="M459.2,471.5l-4.7,29.8c0,0-23,12.2-6.8,12.6s92.3,0,92.3,0s14.7,0-8.6-12.9l-4.7-31.2L459.2,471.5z"/>
	<path class="st5" d="M444.5,513.5c3.1-2.5,6.5-4.8,10.1-6.7l4.7-29.8l67.5,0.1l4.7,29.4c3.8,2,7.5,4.4,10.8,7.1
		c3-0.7,6.3-3.2-10.8-12.7l-4.7-31.2l-67.5,1.8l-4.7,29.8C454.6,501.3,435.3,511.6,444.5,513.5z"/>
	<path class="st6" d="M351.3,263.7H634c5.9,0,10.7,4.8,10.7,10.7v190.5c0,5.9-4.8,10.7-10.7,10.7H351.3c-5.9,0-10.7-4.8-10.7-10.7
		V274.4C340.6,268.5,345.3,263.7,351.3,263.7z"/>
	<rect x="350.8" y="275" class="st7" width="283.7" height="158.7"/>
	<circle class="st7" cx="492.6" cy="270" r="1.8"/>
	<path class="st6" d="M644.7,446.4V465c0,5.9-4.8,10.7-10.7,10.7l0,0H351.3c-5.9,0-10.7-4.8-10.7-10.7l0,0v-18.6H644.7z"/>
	<circle class="st7" cx="492.6" cy="461.1" r="6.8"/>
</g>
<g id="Computer_1_-_Screen">
	<rect id="Background_1_" x="350.4" y="274.8" class="st8" width="284.1" height="159.3"/>
	<g id="Top_Code">
		<path class="st7" d="M488.8,282.6h-91.7c-0.6,0-1.1-0.5-1.1-1.1s0.5-1.1,1.1-1.1l0,0h91.7c0.6,0,1.1,0.5,1.1,1.1
			S489.4,282.6,488.8,282.6z"/>
		<path class="st7" d="M589.1,294.9H444.9c-0.6,0-1.1-0.5-1.1-1.1s0.5-1.1,1.1-1.1l0,0h144.2c0.6,0,1.1,0.5,1.1,1.1
			C590.2,294.4,589.7,294.9,589.1,294.9z"/>
		<path class="st7" d="M489.2,307.1h-91.7c-0.6,0-1.1-0.5-1.1-1.1s0.5-1.1,1.1-1.1h91.7c0.6,0,1.1,0.5,1.1,1.1
			S489.8,307.1,489.2,307.1z"/>
		<path class="st7" d="M589.1,307.3h-91.7c-0.6,0-1.1-0.5-1.1-1.1s0.5-1.1,1.1-1.1h91.7c0.6,0,1.1,0.5,1.1,1.1
			S589.7,307.3,589.1,307.3z"/>
		<path class="st7" d="M489.4,319.3h-91.7c-0.6,0-1.1-0.5-1.1-1.1s0.5-1.1,1.1-1.1h91.7c0.6,0,1.1,0.5,1.1,1.1
			C490.6,318.9,490.1,319.3,489.4,319.3z"/>
		<path class="st7" d="M489.7,331.6H398c-0.6,0-1.1-0.5-1.1-1.1s0.5-1.1,1.1-1.1h91.7c0.6,0,1.1,0.5,1.1,1.1
			C490.8,331.1,490.3,331.6,489.7,331.6z"/>
		<path class="st7" d="M531.3,282.9H505c-0.6,0-1.1-0.5-1.1-1.1s0.5-1.1,1.1-1.1l0,0h26.3c0.6,0,1.1,0.5,1.1,1.1
			S531.9,282.9,531.3,282.9z"/>
		<path class="st7" d="M531.3,319.3H505c-0.6,0-1.1-0.5-1.1-1.1s0.5-1.1,1.1-1.1l0,0h26.3c0.6,0,1.1,0.5,1.1,1.1
			C532.4,318.9,531.9,319.3,531.3,319.3z"/>
		<path class="st7" d="M531.3,331.4H505c-0.6,0-1.1-0.5-1.1-1.1s0.5-1.1,1.1-1.1l0,0h26.3c0.6,0,1.1,0.5,1.1,1.1
			S531.9,331.4,531.3,331.4L531.3,331.4z"/>
		<path class="st7" d="M575.3,331.4H549c-0.6,0-1.1-0.5-1.1-1.1s0.5-1.1,1.1-1.1h26.3c0.6,0,1.1,0.5,1.1,1.1
			C576.4,330.9,575.9,331.4,575.3,331.4L575.3,331.4z"/>
		<path class="st7" d="M423.1,294.9h-26.3c-0.6,0-1.1-0.5-1.1-1.1s0.5-1.1,1.1-1.1l0,0h26.3c0.6,0,1.1,0.5,1.1,1.1
			S423.8,294.9,423.1,294.9z"/>
	</g>
	<g id="Lower_Code">
		<path class="st7" d="M488.5,389.3H397c-0.6,0-1.1-0.4-1.1-0.9s0.5-0.9,1.1-0.9l0,0h91.6c0.6,0,1.1,0.4,1.1,0.9
			C489.6,388.9,489.1,389.3,488.5,389.3z"/>
		<path class="st7" d="M488.1,408.6h-91.6c-0.6,0-1.1-0.4-1.1-0.9s0.5-0.9,1.1-0.9l0,0h91.6c0.6,0,1.1,0.4,1.1,0.9
			S488.7,408.6,488.1,408.6z"/>
		<path class="st7" d="M488.3,418.2h-91.6c-0.6,0-1.1-0.4-1.1-0.9s0.5-0.9,1.1-0.9l0,0h91.6c0.6,0,1.1,0.4,1.1,0.9
			C489.4,417.8,488.9,418.2,488.3,418.2z"/>
		<path class="st7" d="M527.4,408.7h-26.2c-0.6,0-1.1-0.4-1.1-0.9s0.5-0.9,1.1-0.9h26.2c0.6,0,1.1,0.4,1.1,0.9
			C528.5,408.3,528,408.7,527.4,408.7L527.4,408.7z"/>
		<path class="st7" d="M527.4,418.2h-26.2c-0.6,0-1.1-0.4-1.1-0.9s0.5-0.9,1.1-0.9h26.2c0.6,0,1.1,0.4,1.1,0.9
			C528.5,417.8,528,418.2,527.4,418.2L527.4,418.2z"/>
		<path class="st7" d="M571.4,408.7h-26.2c-0.6,0-1.1-0.4-1.1-0.9s0.5-0.9,1.1-0.9h26.2c0.6,0,1.1,0.4,1.1,0.9
			C572.5,408.3,572,408.7,571.4,408.7z"/>
		<path class="st7" d="M588.8,398.9h-144c-0.6,0-1.1-0.4-1.1-0.9s0.5-0.9,1.1-0.9h144c0.6,0,1.1,0.4,1.1,0.9
			C589.9,398.5,589.4,398.9,588.8,398.9z"/>
		<path class="st7" d="M423,398.9h-26.2c-0.6,0-1.1-0.4-1.1-0.9s0.5-0.9,1.1-0.9l0,0H423c0.6,0,1.1,0.4,1.1,0.9
			S423.6,398.9,423,398.9z"/>
		<path class="st7" d="M588.8,428h-144c-0.6,0-1.1-0.4-1.1-0.9s0.5-0.9,1.1-0.9h144c0.6,0,1.1,0.4,1.1,0.9
			C589.9,427.6,589.4,428,588.8,428L588.8,428z"/>
		<path class="st7" d="M423,428h-26.2c-0.6,0-1.1-0.4-1.1-0.9s0.5-0.9,1.1-0.9l0,0H423c0.6,0,1.1,0.4,1.1,0.9S423.6,428,423,428z"/>
	</g>
	<g id="Brackets">
		<polygon class="st2" points="414.9,339.3 395.4,358.5 414.9,377.7 419.2,373.3 404.5,358.6 419.4,343.8 		"/>
		<polygon class="st2" points="570.8,339.3 590.2,358.5 570.8,377.7 566.4,373.3 581.1,358.6 566.3,343.8 		"/>
	</g>
	<g id="Window-buttons">
		<circle class="st2" cx="355.8" cy="278.8" r="2.4"/>
		<circle class="st2" cx="362.3" cy="278.8" r="2.4"/>
		<circle class="st2" cx="368.8" cy="278.8" r="2.4"/>
	</g>
</g>
<g id="Computer_2">
	<path class="st6" d="M760,475.4l-4.5,30.5c0,0-21.7,11.4-6.5,12.6c15.4,1.2,90.6,4.8,90.6,4.8s15,0.8-8.7-14.1l-4.7-33.2L760,475.4
		z"/>
	<path class="st5" d="M746,518c3-2.4,6.2-4.6,9.6-6.3l4.5-30.5l66.2,2.6l4.7,31.3c3.9,2.3,7.5,5,10.9,8.1c3.1-0.6,6.4-3.1-10.9-14
		l-4.7-33.2l-66.2-0.5l-4.5,30.5C755.5,505.9,737.3,515.5,746,518z"/>
	<path class="st6" d="M660.7,266.1l277.9-12.9c6.5-0.3,11.7,4.7,11.7,11.3v210.6c0,6.5-5.3,11.6-11.7,11.4l-277.9-10.6
		c-5.2-0.2-9.4-5.1-9.4-10.9V277.1C651.3,271.3,655.5,266.4,660.7,266.1z"/>
	<polygon class="st7" points="660.3,277.3 939.1,265.7 939.1,440.4 660.3,434.5 	"/>
	<path class="st7" d="M792.3,264.7c1,0,1.8,0.8,1.8,1.8s-0.8,1.9-1.8,1.9s-1.8-0.8-1.8-1.8C790.6,265.6,791.3,264.7,792.3,264.7z"/>
	<path class="st6" d="M950.4,454.6v20.5c0,6.5-5.3,11.6-11.7,11.4l0,0l-277.9-10.6c-5.2-0.2-9.4-5.1-9.4-10.9l0,0v-18.3L950.4,454.6
		z"/>
	<path class="st7" d="M792.3,458.6c3.7,0.1,6.7,3.4,6.7,7.3s-3,7-6.7,6.9s-6.7-3.4-6.7-7.3S788.6,458.5,792.3,458.6z"/>
</g>
<g id="Computer_2_-_Screen">
	<path class="st9" d="M939.4,273.5L660.6,284c0-3.7,3-6.9,6.6-7l263.5-11C935.6,265.8,939.5,269.2,939.4,273.5z"/>
	<path class="st2" d="M666.8,279c0.9,0,1.6,0.7,1.6,1.6s-0.7,1.7-1.6,1.8c-0.9,0-1.6-0.7-1.6-1.6S665.9,279,666.8,279z"/>
	<path class="st2" d="M671.8,278.7c0.9,0,1.7,0.7,1.7,1.6s-0.7,1.7-1.7,1.8c-0.9,0-1.6-0.7-1.6-1.6S670.9,278.8,671.8,278.7z"/>
	<path class="st2" d="M676.7,278.5c0.9,0,1.7,0.7,1.7,1.6s-0.7,1.7-1.7,1.8c-0.9,0-1.7-0.7-1.7-1.6S675.8,278.6,676.7,278.5z"/>
	<polygon class="st2" points="676.1,290.8 740.5,287.8 740.5,291.8 676.1,294.6 	"/>
	<polygon class="st2" points="676.8,402.2 741.2,403.4 741.2,407.3 676.8,406 	"/>
	<polygon class="st10" points="676.8,410.6 800.2,413.6 800.2,417.6 676.8,414.4 	"/>
	<polygon class="st10" points="676.9,416.1 800.2,419.5 800.3,423.6 676.9,419.9 	"/>
	<polygon class="st10" points="676.9,421.6 800.3,425.4 800.3,429.5 676.9,425.5 	"/>
	<polygon class="st10" points="676.2,301 798.6,296 799,364.5 676.5,364.9 	"/>
	<polygon class="st10" points="677.8,370.8 705,370.8 705.1,396.7 678,396.3 	"/>
	<polygon class="st10" points="768.8,370.9 799,370.9 799.2,398.1 769,397.6 	"/>
	<polygon class="st10" points="721.5,370.9 750.1,370.9 750.2,397.4 721.7,396.9 	"/>
	<polygon class="st10" points="827.1,315.1 925.2,312.2 925.6,380.5 827.5,380 	"/>
	<polygon class="st11" points="837.1,328 914.4,326.3 914.4,330.6 837.1,332.2 	"/>
	<polygon class="st11" points="837.1,336.7 914.5,335.3 914.5,339.7 837.1,340.9 	"/>
	<polygon class="st11" points="837.2,345.3 914.5,344.3 914.6,348.7 837.2,349.5 	"/>
	<polygon class="st11" points="837.2,354 914.6,353.3 914.6,357.7 837.2,358.2 	"/>
	<polygon class="st11" points="837.3,362.6 914.6,362.3 914.7,366.7 837.3,366.8 	"/>
	<polygon class="st2" points="839,387.5 913.1,388.2 913.2,400.4 839,399.2 	"/>
	<polygon class="st2" points="835.4,426.5 884.3,428 884.3,436 835.5,434.4 	"/>
</g>
<g id="Computer_3">
	<path class="st6" d="M160.6,476l-4.7,33.2c-23.8,14.9-8.7,14.1-8.7,14.1s75.1-3.6,90.6-4.8c15.2-1.2-6.5-12.6-6.5-12.6l-4.5-30.5
		L160.6,476z"/>
	<path class="st5" d="M231.2,505.9l-4.5-30.5l-66.2,0.5l-4.7,33.2c-17.3,10.9-14,13.4-10.9,14c3.4-3.1,7.1-5.8,10.9-8.1l4.7-31.3
		l66.2-2.6l4.5,30.5c3.4,1.8,6.6,3.9,9.6,6.3C249.5,515.5,231.2,505.9,231.2,505.9z"/>
	<path class="st6" d="M335.4,277.1V465c0,5.8-4.2,10.7-9.4,10.9L48.1,486.5c-6.5,0.2-11.7-4.8-11.7-11.4V264.5
		c0-6.5,5.3-11.6,11.7-11.3L326,266.1C331.2,266.4,335.4,271.3,335.4,277.1z"/>
	<polygon class="st12" points="326.4,434.5 47.6,440.4 47.6,265.7 326.4,277.3 	"/>
	<path class="st7" d="M196.2,266.6c0,1-0.8,1.8-1.8,1.8s-1.8-0.9-1.8-1.9s0.8-1.8,1.8-1.8S196.2,265.6,196.2,266.6z"/>
	<path class="st6" d="M335.4,446.7V465l0,0c0,5.8-4.2,10.7-9.4,10.9L48.1,486.5l0,0c-6.5,0.2-11.7-4.8-11.7-11.4v-20.5L335.4,446.7z
		"/>
	<path class="st7" d="M201.1,465.5c0,3.9-3,7.2-6.7,7.3c-3.7,0.1-6.7-3-6.7-6.9s3-7.2,6.7-7.3C198.1,458.5,201.1,461.6,201.1,465.5z
		"/>
</g>
<g id="Computer_3_-_Screen">
	<path class="st2" d="M47.6,274l278.5,9.2c-0.1-1-0.4-2-0.9-2.9c-1.1-2-3.2-3.4-5.4-3.4l-263.2-10C51.8,266.7,47.8,269.8,47.6,274z"
		/>
	<path class="st11" d="M64.3,271.3c0,0.9-0.7,1.6-1.5,1.5c-0.9,0-1.6-0.8-1.6-1.7s0.7-1.6,1.6-1.5C63.6,269.7,64.3,270.4,64.3,271.3
		z"/>
	<path class="st11" d="M59.6,271.1c0,0.9-0.7,1.6-1.6,1.6c-0.9,0-1.6-0.8-1.6-1.7s0.7-1.6,1.6-1.6C58.9,269.4,59.6,270.2,59.6,271.1
		z"/>
	<path class="st11" d="M54.9,270.8c0,0.9-0.7,1.6-1.6,1.6c-0.9,0-1.6-0.8-1.6-1.7s0.7-1.6,1.6-1.6C54.2,269.2,54.9,269.9,54.9,270.8
		z"/>
	<polygon class="st2" points="318,292 284.8,290.6 284.8,287.4 318,288.9 	"/>
	<polygon class="st13" points="318,307.2 284.8,306.2 284.8,303 318,304.1 	"/>
	<polygon class="st13" points="318,317.9 284.8,317.3 284.8,314.1 318,314.8 	"/>
	<polygon class="st13" points="318,328.7 284.8,328.3 284.8,325.1 318,325.6 	"/>
	<polygon class="st13" points="318,339.5 284.8,339.4 284.8,336.2 318,336.3 	"/>
	<polygon class="st13" points="318,350.2 284.8,350.4 284.8,347.2 318,347.1 	"/>
	<polygon class="st13" points="318,361 284.8,361.5 284.8,358.3 318,357.9 	"/>
	<polygon class="st13" points="318,371.7 284.8,372.5 284.8,369.3 318,368.6 	"/>
	<polygon class="st14" points="247.3,298.4 63.9,292 63.9,291.4 247.3,297.8 	"/>
	<polygon class="st14" points="247.3,310.7 63.9,306.1 63.9,305.5 247.3,310.2 	"/>
	<polygon class="st14" points="247.3,323 63.9,320.2 63.9,319.6 247.3,322.5 	"/>
	<polygon class="st14" points="247.3,335.4 63.9,334.3 63.9,333.6 247.3,334.8 	"/>
	<polygon class="st14" points="247.3,347.7 63.9,348.4 63.9,347.7 247.3,347.2 	"/>
	<polygon class="st13" points="63.9,306.3 73.3,301.8 84.8,300.6 95.5,304.3 116.2,319.8 125.7,322.9 137.6,321.7 152.4,313.3 
		163.1,308.7 169.5,308.5 176.1,309.9 185.1,315 202.6,328.2 216.8,332.4 232.6,330.5 247.5,323.4 247.5,347.7 63.9,348.3 	"/>
	<path class="st2" d="M207.3,330.4c-6.9-2.7-11.9-6.7-16.7-10.7c-4.9-4.1-9.7-8-16-9.8c-7.3-2-15.5-0.6-21.7,4
		c-5.7,4.2-17.1,10.9-29.5,8.7c-6.5-1.2-11.8-5.5-17.6-10c-10.7-8.5-21.9-17.4-41.7-5.6l-0.6-0.7c20.3-12.1,31.9-3,42.8,5.7
		c5.6,4.5,10.9,8.7,17.2,9.8c12,2.2,23.3-4.4,28.8-8.5c6.5-4.8,14.9-6.3,22.5-4.2c6.6,1.8,11.3,5.8,16.3,9.9
		c4.8,3.9,9.7,8,16.5,10.6c18.3,7.1,39.3-6.3,39.5-6.5l0.4,0.6c-0.2,0.1-13.7,8.8-28.6,8.6C215,332.5,211,331.8,207.3,330.4z"/>
	<path class="st2" d="M169.6,308.5c0,2.3-2,4.1-4.5,4.1c-2.5-0.1-4.5-2-4.5-4.3s2-4.1,4.5-4.1S169.6,306.1,169.6,308.5z"/>
	<g class="st15">
		<polygon class="st16" points="232.9,380.7 208.4,381.4 208.4,376.3 232.9,375.7 		"/>
		<polygon class="st16" points="175.1,382.4 148.3,383.1 148.3,377.8 175.1,377.1 		"/>
		<polygon class="st16" points="111.8,384.2 82.4,385.1 82.4,379.5 111.8,378.7 		"/>
	</g>
	<g id="Spinner3">
		<path class="st2" d="M230.2,419.9l2.8,2.6c4.3-3.9,6.7-9.3,6.7-14.9c0-10.6-8.8-18.5-19.7-18h-0.1v3.9h0.1
			c8.8-0.3,15.9,5.8,15.9,14.3C235.7,412.4,233.6,416.8,230.2,419.9z"/>
		<circle class="st17" cx="221.3" cy="408.2" r="16.4"/>
	</g>
	<g id="Spinner2">
		<path class="st2" d="M168,396.9l1.8-3.3c-2.5-0.9-5.2-1.3-8-1.2c-2.2,0.1-4.3,0.5-6.2,1.3l0.8,3.6c1.8-0.7,3.6-1.2,5.5-1.2
			C163.9,395.8,166,396.2,168,396.9z"/>
		<circle class="st17" cx="163" cy="411" r="17"/>
	</g>
	<g id="Spinner1">
		<path class="st2" d="M78.3,415.2c0.3,4.3,2.3,7.6,5.4,10.5c6.7,6.9,21.3,6.1,27.1-0.4c6.6-5.9,7.1-16.9,2.1-23.9l-3,2.8
			c1.9,2.3,1.9,5.3,1.9,8.4c0,6.8-4.5,13.1-12.9,14.2c-8.6,0.6-15.5-5.1-16.8-12.7l-3.4,0.6L78.3,415.2z"/>
		<circle class="st17" cx="97.1" cy="411.8" r="17"/>
	</g>
</g>
<g id="Flower">
	<path id="Leaf" class="st18" d="M350.4,457.7c0,16.8-10,22.7-22.3,22.7s-22.3-5.9-22.3-22.7s22.3-38.3,22.3-38.3
		S350.4,440.9,350.4,457.7z"/>
	<polygon id="Veins" class="st6" points="327.6,463.8 337.1,446.3 327.6,461.6 327.7,455.2 334.3,442.6 327.8,453.5 327.9,442.1 
		335,432.1 328,440.4 328.1,419.5 327.4,445.9 320.3,435 327.3,448.2 326.7,460.9 326.6,460.6 318.4,449 326.6,461.8 326.5,463.3 
		326.5,463.4 326.5,463.5 324.8,480.5 327.1,480.5 327.4,479.1 335.5,466.4 327.4,477.9 	"/>
	<polygon id="Pot" class="st19" points="342.4,517 315.9,517 309,478 347.8,478 	"/>
</g>
<g id="Person">
	<g id="Head">
		<path class="st20" d="M538.6,385.2c0,0-99.5,12-90,0c3.4-4.3,4.4-17.2,4.2-31.8c-0.1-4.5-0.2-9.1-0.5-13.6
			c-1.1-22-3.8-43.5-3.8-43.5s87-41,77-8.5c-4,13.1-2.7,31.6,0.3,48.9c0.9,5,1.9,10,3,14.7C531.6,362.7,534.8,374.1,538.6,385.2z"/>
		<circle class="st20" cx="487.3" cy="280.2" r="51.3"/>
		<path class="st5" d="M525.9,336.6c-1.5,0.7-3,1.2-4.5,1.7c-10.8,3.7-21.6,7.5-33,8.8c-11.3,1.4-23.3,0.2-33.2-5.5
			c-1-0.6-2-1.2-3-2c-1.1-22-3.8-43.5-3.8-43.5s87-41,77-8.5C521.6,300.8,522.9,319.3,525.9,336.6z"/>
		<path class="st6" d="M473.2,200c-2.9,0.8-6,0.1-8.3-1.8l2.1,2.9c-2.5,0.3-5-0.5-6.8-2.2c-0.2,2.6-0.1,5.2,0.3,7.8
			c-3.4,0.2-6.8-0.9-9.6-3c-0.1,1.8,0.9,3.6,2.6,4.3c-7.2-0.9-13.8,3.7-15.6,10.7l5.2,0.5c-4.1,0.9-7.8,3.1-10.4,6.4
			c-1.6,2-2.8,4.6-2.1,7s4.1,4,5.9,2.3c-5.3,6.3-7.5,14.7-6.1,22.8c0.5,1.7,0.6,3.5,0.5,5.3c-0.3,1.6-1.4,3.1-1.9,4.7
			c-1,2.9,0,6.1,0.8,9l4.7,15.4c1.7,5.6,3.4,11.1,5.6,16.5c1.6,3.4,2.9,6.9,4,10.5c1.3,4.8,1.3,10.1,4,14.4c1.8,2.7,4.3,4.8,7.2,6.3
			c9.9,5.7,21.8,6.9,33.2,5.5s22.2-5.1,33-8.8c2.4-0.7,4.7-1.7,6.8-3c7.5-4.9,9.1-14.9,10.5-23.6c1.6-9.8,3.6-19.6,7.3-28.8
			c2.2-5.5,5-11.1,4.5-16.9c-0.6-7.8-6.8-14.1-8.3-21.8c-0.5-2.6-0.5-5.2,0.1-7.8c0.5-1.5,0.7-3.1,0.8-4.7c-0.2-3.2-2.8-5.7-5.3-7.8
			c-5.4-4.5-10.9-8.7-16.7-12.7c-0.3-2,2.4-2.9,3.7-4.4c1.7-2.2-0.1-5.8-2.7-6.8s-5.6-0.4-8.3,0.3c0.5-3.6-2.1-6.9-5.7-7.4
			c-2.2-0.3-4.4,0.6-5.8,2.3c-1.5-3.4-4.7-5.7-8.4-6.1c-6.6-0.5-6.8,4.5-11,7.3s-7.7-0.9-11-3.6C470.6,193.9,471.1,197.4,473.2,200z
			"/>
		
			<linearGradient id="SVGID_1_" gradientUnits="userSpaceOnUse" x1="597.79" y1="-350.4099" x2="597.79" y2="26.9242" gradientTransform="matrix(1 0 0 -1 -79.34 211.09)">
			<stop  offset="0" style="stop-color:#808080;stop-opacity:0.25"/>
			<stop  offset="0.54" style="stop-color:#808080;stop-opacity:0.12"/>
			<stop  offset="1" style="stop-color:#808080;stop-opacity:0.1"/>
		</linearGradient>
		<path class="st21" d="M304.4,561.4c0-0.1,0.1-0.2,0.1-0.3c1-3.6,2.8-9.7,4.1-14.5c0.2-0.6,0.3-1.2,0.5-1.8
			c1.5-5.5,4.3-18.3,5.9-26.3c0.6-2.8,1-5,1.1-6.1c0.2-1.7,3.2-8.9,6.6-17.2c2.4-5.8,5-12.2,6.9-17.6c1.3-3.2,2.2-6.5,2.9-9.8
			c0.1-0.7,0.1-1.4,0-2.1c-0.3-1.1-0.5-2.3-0.5-3.5l0,0c-0.2-6.2,1.6-16,4.5-20.1c3.5-5,6-23.7,6-23.7s5.2,0.8,6-3.5
			c0.1-0.5,0.1-0.9,0.1-1.4c0-0.4,0-0.7-0.1-1.1c-0.9-6.2,14.7-12.9,23.5-14.3c1-0.2,2-0.3,3-0.3c2.1-0.2,4.2-0.7,6.2-1.4
			c0.9-0.3,1.9-0.6,3-1c3.7-1.2,8.1-2.9,12.8-4.7c17.6-6.8,38.8-16,38.8-16c0.2-0.7,0.3-1.4,0.5-2.1c2.1-8.6,8.2-15.6,16.3-18.9l0,0
			c0-0.7,0-1.3,0-2c0-3.5-0.2-7-0.3-10.5c0-0.7-0.1-1.4-0.1-2.1c0-0.2,0-0.4,0-0.6s0-0.4,0-0.5c0-0.7-0.1-1.4-0.1-2.1l-0.2-0.1
			c-1.5-1.2-2.9-2.6-3.9-4.2c-0.6-0.9-1.1-2-1.4-3c-1.2-3.4-1.5-7.2-2.4-10.8l-0.2-0.7c-1.1-3.6-2.4-7.1-4-10.6
			c-2.2-5.4-3.9-11-5.6-16.6c-1-3.4-2.1-6.8-3.1-10.3l-1.6-5.2c-0.3-1-0.6-2-0.8-3l0,0c-0.1-0.5-0.2-0.9-0.3-1.4l0,0
			c-0.3-1.5-0.2-3.1,0.2-4.6c0.4-1,0.8-2,1.3-3c0.2-0.4,0.4-0.9,0.5-1.4l0,0c0-0.1,0.1-0.2,0.1-0.3c0.1-0.4,0.1-0.7,0.1-1.1
			c0-1.3-0.2-2.6-0.5-3.9l0,0c0-0.1,0-0.2,0-0.3c-0.2-1-0.3-2-0.4-3c-0.4-5.4,0.9-10.8,3.5-15.6l0.2-0.4c0.6-1,1.2-1.9,1.8-2.8l0,0
			c0.3-0.4,0.6-0.8,1-1.2c-1.4,1.3-3.7,0.8-5-0.7c-0.2-0.2-0.4-0.5-0.5-0.8c-0.1-0.1-0.2-0.3-0.2-0.5c0-0.1-0.1-0.2-0.1-0.4
			c-0.7-2.5,0.5-5.1,2.1-7s3.5-3.5,5.7-4.7l0,0c0.1-0.1,0.3-0.1,0.4-0.2c0.8-0.4,1.7-0.8,2.6-1.1l0,0c0.5-0.2,1.1-0.3,1.6-0.4
			l-3.7-0.3L438,216c1.5-6.1,6.8-10.5,13-10.9h1.1c0.5,0,1.1,0.1,1.6,0.1c-1.7-0.7-2.8-2.5-2.7-4.3c2.6,2,5.9,3.1,9.2,3.1h0.4
			c-0.2-1.1-0.3-2.2-0.3-3.3l0,0l0,0l0,0c-0.1-1.5-0.1-3,0-4.5c1.8,1.7,4.3,2.5,6.8,2.3l-2.1-2.9c1.9,1.5,4.2,2.2,6.6,2h0.5
			c0.4,0,0.8-0.1,1.2-0.2h0.1c-0.2-0.2-0.4-0.5-0.5-0.8l-0.1-0.1c-0.4-0.7-0.8-1.4-1-2.1c-0.1-0.3-0.2-0.6-0.2-0.9l0,0
			c-0.4-1.8-0.3-3.7,0.5-5.5c3.2,2.7,6.8,6.4,11,3.6s4.4-7.9,11-7.4c3.7,0.4,6.9,2.7,8.4,6.1c1.9-2.2,5-2.9,7.7-1.8
			c2.6,1.2,4.2,4,3.9,6.9c2.8-0.7,5.7-1.4,8.3-0.3c2.6,1,4.3,4.4,2.8,6.7c0,0.1-0.1,0.1-0.1,0.2c-1.2,1.6-3.9,2.5-3.7,4.5l0.4,0.3
			l1.3,0.9l0,0c5.1,3.7,10.1,7.5,14.9,11.6c2.5,2.1,5.1,4.6,5.3,7.8c0,0.8-0.1,1.6-0.2,2.4l0,0c-0.2,0.8-0.4,1.6-0.5,2.3
			c-0.4,2-0.5,4-0.3,6l0,0c0.1,0.6,0.2,1.2,0.3,1.8c1.5,7.7,7.7,14.1,8.3,22v0.6c0,0.8,0,1.7-0.1,2.5c-0.5,4.8-2.7,9.4-4.5,14
			c-0.1,0.3-0.2,0.6-0.3,0.8c-3.5,9-5.5,18.6-7,28.2c-0.5,3.4-1.2,6.8-2,10.1c-0.9,3.8-2.7,7.4-5.1,10.4c-1,1.2-2.1,2.2-3.4,3
			c-0.8,0.5-1.7,1-2.7,1.4c0,0,0,0,0,0.1c0.1,0.6,0.2,1.2,0.3,1.8c0.1,0.3,0.1,0.6,0.2,1l0,0c0,0,0,0,0,0.1
			c0.8,4.7,1.8,9.4,2.8,13.8l0.5,2.2c12.6,4.5,14.1,13.9,14.2,17.4c0,0.5,0,1,0,1.4c0,0,19,0.5,26.5,6c1.4,1,2.9,1.7,4.5,2.3
			c3,1.1,6.1,2.1,9.2,2.9c1.6,0.4,3.3,0.8,5,1.2c3,0.7,6.2,1.4,9.2,2c8.2,1.7,15.9,3,19.8,4c9.3,2.4,30.7,22.8,30.7,22.8
			s2.5,20.6,5,23.7s7,13.6,7,13.6l16.5,29.4l7,12.4h4.5c0.6,0,1.8,0.9,3.2,2.1c1.2,1.1,2.5,2.4,3.7,3.6l1.9,2l1.2,1.3
			c0,0,7.3,0.2,9.2,5.9c5.9-0.2,13.2,0.2,18.3,2.5c0.7,0.3,1.4,0.7,2,1.1c2.1,1.2,3.6,3.3,4.1,5.7c0.1,0.5,0.2,1,0.2,1.4
			c0,0.6,0,1.1,0,1.7c-0.4,7.6-5.3,13.9-9.8,18.1l0.3,0.6c0,0-0.2,0.4-0.4,1c-0.1,0.2-0.2,0.4-0.3,0.6l0,0c-0.6,1.3-1.5,3.2-2.8,5.4
			c-2.6,4.8-5.8,9.2-9.6,13.2l-0.3,0.3l-57.7,0.5l-0.2-0.2l-11.2-13.4l-5.6-6.6l-0.2-0.2l-0.2,1.6l-0.5,5.3l-1.3,12.8l-0.1,0.6v0.2
			l-0.2,1.5l0.1-1.5h-0.3l-107,1l-175.6,1.9v0.8h-0.1v-0.8l-44.8,0.5L304.4,561.4z"/>
	</g>
	<g id="Body">
		<path class="st20" d="M697.6,507.4c0,0,34.2-5.2,34.8,9.8c0.6,15-17.4,25.5-17.4,25.5L697.6,507.4z"/>
		<path class="st5" d="M538.6,385.2c0,0-99.5,12-90,0c3.4-4.3,4.4-17.2,4.2-31.8c15.2-6.5,34.5-1.7,34.5-1.7
			c20.3-4,33.4-3.3,41.7-0.4C531.6,362.7,534.8,374.1,538.6,385.2z"/>
		<path class="st2" d="M349.7,560.6v-0.8l175.6-1.9l107-1h0.3l-0.1,1.5l0.2-1.5h0.2v-0.2l1.4-13.5l0.5-5.1l0.2-1.6l0.1-1.3l6.2-20.6
			l6.2-20.6l5.2-17.3l7.9-26.5c0,0-4.5-10.5-7-13.5s-5-23.5-5-23.5s-21.3-20.3-30.7-22.7c-3.9-1-11.6-2.3-19.8-4
			c-3.1-0.6-6.2-1.3-9.2-2c-1.7-0.4-3.4-0.8-5-1.2c-3.1-0.8-6.2-1.7-9.2-2.9c-1.6-0.6-3.1-1.3-4.5-2.3c-7.3-5.4-25.8-6-26.5-6l0,0
			c0,0,0,0,0-0.1l0,0c0-0.4,0-0.8,0-1.3c0-0.4,0-0.9-0.1-1.4c0-0.2,0-0.3-0.1-0.5c-0.1-0.4-0.1-0.7-0.2-1.1c0-0.2-0.1-0.4-0.1-0.5
			c-0.3-1.2-0.7-2.4-1.2-3.5c-0.1-0.2-0.2-0.3-0.2-0.5c-0.5-0.9-1.1-1.8-1.7-2.6c-0.1-0.2-0.3-0.3-0.4-0.5c-0.8-1-1.7-1.9-2.7-2.6
			c-0.3-0.2-0.5-0.4-0.8-0.6c-0.2-0.1-0.3-0.3-0.5-0.4l-0.9-0.6l-0.8-0.5c-0.7-0.4-1.5-0.8-2.3-1.2c-0.3-0.1-0.5-0.2-0.8-0.3
			s-0.7-0.3-1.1-0.4h-0.1l-0.7-0.3c-0.6-0.2-1.2-0.4-1.8-0.5l-0.9-0.2l-1-0.2l-1-0.2c-1-0.2-2.1-0.4-3.2-0.5l-1.1-0.1l-1.2-0.1
			l-1.2-0.1l-1.7-0.1l-2-0.1c-8.8,0-17.6,0.9-26.2,2.8c-6-1.3-12.1-1.9-18.3-1.7h-0.9l-1,0.1h-0.6l-1.3,0.1c-0.4,0-0.9,0.1-1.3,0.2
			s-0.9,0.1-1.3,0.2l-0.7,0.1c-0.7,0.1-1.3,0.2-2,0.4c-0.2,0-0.4,0.1-0.7,0.2c-0.9,0.2-1.7,0.4-2.6,0.7c-0.4,0.1-0.9,0.3-1.3,0.4
			c-0.2,0.1-0.4,0.1-0.6,0.2l-0.6,0.2l-0.6,0.2l-0.8,0.3c-0.4,0.2-0.8,0.3-1.1,0.5c-0.2,0.1-0.4,0.2-0.6,0.3s-0.4,0.2-0.6,0.3
			c-2.3,1.2-4.4,2.6-6.2,4.4l-0.5,0.5l-0.5,0.5c-0.2,0.2-0.3,0.3-0.5,0.5c-0.7,0.7-1.3,1.5-1.8,2.2c-0.2,0.2-0.3,0.4-0.5,0.6
			c-0.6,0.9-1.2,1.9-1.7,2.9c-0.1,0.2-0.2,0.5-0.4,0.7c-0.8,1.7-1.5,3.4-2,5.2c-0.2,0.7-0.4,1.3-0.5,2c-0.2,1-21.2,9.3-38.7,16.1
			c-4.7,1.8-9.1,3.4-12.8,4.7c-1.1,0.4-2.1,0.7-3,1c-2,0.7-4.1,1.2-6.2,1.4c-1,0-2,0.1-3,0.3c-8.1,1.3-21.9,7-23.4,12.7
			c-0.1,0.5-0.2,0.9-0.1,1.4v0.1c1,7-6,6-6,6s-2.5,18.5-6,23.5c-2.5,3.6-4.3,11.6-4.5,17.7l0,0c-0.1,1.9,0,3.8,0.4,5.6v0.1
			c0.4,1.3-0.6,5-2.2,9.7c-1.8,5.2-4.4,11.5-6.8,17.6c-3.7,9.1-7.3,17.4-7.5,19.2c-0.1,0.8-0.4,2.3-0.7,4.1
			c-1.5,7.6-4.7,22.1-6.3,28c-1.2,4.4-2.9,10.4-4.1,14.5c0,0.1-0.1,0.2-0.1,0.3l44.8-0.4L349.7,560.6L349.7,560.6L349.7,560.6z"/>
		<path class="st5" d="M482.1,430.7c0,0,55.5,18,74,20.5S482.1,430.7,482.1,430.7z"/>
		<path class="st5" d="M366.1,442.7c0,0,57,29.5,77.5,26L366.1,442.7z"/>
		<path class="st2" d="M722.9,537.4c0,0-0.9,2.1-2.5,5.2c-2.5,4.7-5.5,9.1-9,13.2l-0.3,0.3h-1.6l-57.7,0.5h-1.4l-0.2-0.2L639,543.1
			l-4.2-5l-0.2-0.2l-0.4-0.4l-0.2-0.2l-0.3-0.3l-8.2-9.7l3-12.5l5.1-21.1l0.1-0.5l1-4l0.7-3l2.4-9.8l8.2-33.7l14.5,7.5l15.3,27
			l8.2,14.5h4.5c0.8,0,2.8,1.6,4.8,3.5c0.7,0.7,1.4,1.4,2,2c1.8,1.8,3.2,3.4,3.2,3.4s7.3,0.2,9.2,5.9c0.1,0.3,0.2,0.6,0.2,0.8
			c0.7,2.3,1.5,4.5,2.5,6.6c1.3,2.8,2.9,6,4.5,9.2c3.1,5.8,6.2,11.4,7.3,13.4l0.1,0.2L722.9,537.4z"/>
		<path class="st5" d="M684.1,491.7c0,0,3.2,11.5,0,21.5C680.9,523.2,684.1,491.7,684.1,491.7z"/>
		<path class="st5" d="M697.6,503.4c0,0,1.3,14.6-1.7,17.2S697.6,503.4,697.6,503.4z"/>
		<path class="st5" d="M543.7,372.8c-29,5.3-83.6,4.2-107.2,3.4c8.7-31,50.8-20.5,50.8-20.5C539.5,345.3,543.5,366.9,543.7,372.8z"
			/>
		<path class="st2" d="M543.7,370.8c-29,5.3-83.6,4.2-107.2,3.4c8.7-31,50.8-20.5,50.8-20.5C539.5,343.3,543.5,364.9,543.7,370.8z"
			/>
	</g>
	<g id="Headphones">
		<path class="st22" d="M542.8,247.8"/>
		<path class="st22" d="M434.9,248.8"/>
		<rect x="550.7" y="245.5" class="st23" width="5.2" height="29.6"/>
		<path class="st24" d="M543.7,264.6L543.7,264.6c9.9,0,18,8,18,18v1.2c0,9.9-8,18-18,18l0,0l0,0V264.6L543.7,264.6z"/>
		<path class="st23" d="M544.3,262.9L544.3,262.9c2.2,0,4.1,1.8,4.1,4.1v32.5c0,2.2-1.8,4.1-4.1,4.1l0,0c-2.2,0-4.1-1.8-4.1-4.1
			v-32.5C540.3,264.7,542.1,262.9,544.3,262.9z"/>
		<rect x="421.2" y="246.1" class="st23" width="5.2" height="29.6"/>
		<path class="st24" d="M433.4,302.3L433.4,302.3c-9.9,0-18-8-18-18v-1.2c0-9.9,8-18,18-18l0,0l0,0V302.3L433.4,302.3z"/>
		<path class="st23" d="M432.8,304L432.8,304c-2.2,0-4.1-1.8-4.1-4.1v-32.5c0-2.2,1.8-4.1,4.1-4.1l0,0c2.2,0,4.1,1.8,4.1,4.1v32.5
			C436.8,302.2,435,304,432.8,304z"/>
		<path class="st24" d="M550.1,213.9c-7.1-14.7-22.4-32.4-55.6-33.9v0h-0.4l0,0l-11.7,0.6v0.1c-32.9,1.5-48.2,19.2-55.3,33.8
			c-4.7,9.9-7.2,20.7-7.3,31.7l4.1-0.1l4.1-0.1c0.2-9.8,2.4-19.4,6.6-28.2c8.9-18.4,25.4-28.1,48.9-29l0,0l10.4-0.6l0,0
			c23.5,0.9,40,10.7,48.9,29c4.2,8.8,6.4,18.5,6.6,28.2l4.1,0.1l4.1,0.1C557.2,234.6,554.7,223.8,550.1,213.9z"/>
	</g>
</g>
<g id="Chair">
	<path class="st5" d="M637,488.7l-0.1,1.4v0.1l-0.2,2.3l-1.3,18.5l-1.6,22.3l-0.5,6.3l-1,13.4v0.2l-107,1l-175.6,1.9v0.8h-0.1v-0.8
		v-0.3l0.5-14.4l0.9-28.1l0.7-23.8l0.1-2.4c0.2-5.8,5-10.4,10.8-10.2c0.2,0,0.4,0,0.6,0c4.7,0.4,10.9,0.9,18.2,1.4l3,0.2
		c42.3,2.9,120.6,6.7,199.5,2c1.7-0.1,3.3-0.2,5-0.3c12.2-0.8,24.5-1.8,36.6-3c5.8-0.6,11,3.6,11.6,9.4
		C637.1,487.4,637.1,488,637,488.7L637,488.7z"/>
	<path class="st6" d="M349.7,556.9v-0.8l175.6-1.9l107-1h0.3V553l1-13.4l0.4-6l1.6-22.6l1.3-17.9v-0.4c0.1-0.8,0-1.7-0.1-2.5v-0.1
		c-0.3-1.7-1-3.3-2-4.6c-2.2-2.9-5.8-4.4-9.4-4c-12.1,1.2-24.3,2.2-36.6,3c-1.7,0.1-3.3,0.2-5,0.3c-78.9,4.7-157.2,0.9-199.5-2
		l-3-0.2c-7.3-0.5-13.5-1-18.2-1.4c-5.4-0.5-10.2,3.2-11.2,8.5c-0.1,0.5-0.2,1.1-0.2,1.6l-0.7,22.2l-0.9,28.1l-0.4,14.4v0.3V556.9
		L349.7,556.9z"/>
	<path class="st5" d="M637.3,495.7l-1.2,15.3l-1.8,22.8l-0.5,5.7l-1,12.8l-0.1,0.6v0.2l0,0l-0.2,1.5l0.1-1.5h-0.3l-107,1L349.7,556
		v-0.3l0.5-14.4l1-28.1l0.6-18.7c0.1-2.2,1.2-4.1,3.1-5.2c1.1-0.7,2.5-1,3.8-0.9c2.1,0.2,4.7,0.4,7.7,0.6c4.9,0.4,10.9,0.8,17.9,1.2
		c13,0.8,29.3,1.7,48,2.4c52,2,122.2,2.7,188.9-3.2c3-0.3,6.1-0.5,9.1-0.8c1.2-0.1,2.4,0.1,3.5,0.7c0.3,0.2,0.6,0.3,0.9,0.5
		c0.9,0.6,1.6,1.5,2,2.5c0.1,0.2,0.2,0.4,0.2,0.6C637.3,493.9,637.4,494.8,637.3,495.7z"/>
</g>
</svg>
